# File created by Blade
# Date/Time:  Tue Jan 27 19:58:31 2015
# Frame Rate: 120.000 fps
#------------------------------------------------------
:FULLY-SPECIFIED
:DEGREES
1573
root 6.449934 32.698933 2.265599 -4.336454 -17.018721 -10.964563
Spine 9.741322 15.399515 9.159759
Head 1.334590 -6.134773 4.716830
LeftShoulder -17.236691 4.733195 30.420210
LeftArm -10.238762 -9.931043 -77.989954
LeftForeArm -14.261517 -0.000000 125.725112
LeftHand 8.084123 -0.000000 -3.595901
LeftHandThumb1 -26.253704 0.000000 33.147579
RightShoulder -19.320205 -16.698305 -23.332673
RightArm 6.127173 -9.843437 87.752586
RightForeArm -11.682078 -0.000000 16.697415
RightHand 18.302414 -0.000000 6.177075
RightHandThumb1 -24.326973 -0.000000 -32.862282
LeftUpLeg 11.839104 9.120852 1.800176
LeftLeg 0.285774 -0.000000 -0.000000
LeftFoot -19.903065 20.233140 -16.606374
LeftToeBase 20.421174 -0.000000 -0.000000
RightUpLeg -68.735215 -26.902594 8.842006
RightLeg 105.082038 -0.000000 -0.000000
RightFoot 23.822781 -29.702970 23.323881
RightToeBase 5.997734 -0.000000 -0.000000
1574
root 6.449066 32.698677 2.268325 -4.339598 -17.098091 -10.961082
Spine 9.782888 15.385620 9.166036
Head 1.271869 -6.016598 4.711614
LeftShoulder -17.219208 4.631801 30.412517
LeftArm -10.323421 -9.808796 -78.042794
LeftForeArm -14.103465 -0.000000 125.469950
LeftHand 8.083786 -0.000000 -3.317709
LeftHandThumb1 -26.253704 0.000000 33.147579
RightShoulder -19.257729 -16.672765 -23.354817
RightArm 6.190874 -9.896709 87.718047
RightForeArm -11.711343 -0.000000 16.686119
RightHand 18.315395 -0.000000 6.145467
RightHandThumb1 -24.326973 -0.000000 -32.862282
LeftUpLeg 11.855716 9.113729 1.792874
LeftLeg 0.292456 -0.000000 -0.000000
LeftFoot -19.905653 20.295349 -16.602641
LeftToeBase 20.357966 -0.000000 -0.000000
RightUpLeg -68.705623 -26.816113 8.774185
RightLeg 105.096580 -0.000000 -0.000000
RightFoot 23.844475 -29.717018 23.323171
RightToeBase 6.063433 -0.000000 -0.000000
1575
root 6.444705 32.699602 2.267926 -4.321574 -17.157948 -10.989641
Spine 9.810989 15.364748 9.185639
Head 1.204799 -5.914176 4.732820
LeftShoulder -17.189829 4.545771 30.404977
LeftArm -10.402176 -9.712624 -78.104728
LeftForeArm -14.043456 -0.000000 125.185958
LeftHand 8.330076 -0.000000 -3.199176
LeftHandThumb1 -26.253704 0.000000 33.147579
RightShoulder -19.205733 -16.619504 -23.366151
RightArm 6.228957 -9.967312 87.675507
RightForeArm -11.713586 -0.000000 16.670083
RightHand 18.335829 -0.000000 6.153660
RightHandThumb1 -24.326973 -0.000000 -32.862282
LeftUpLeg 11.865408 9.172718 1.834333
LeftLeg 0.262983 -0.000000 -0.000000
LeftFoot -19.868255 20.239345 -16.594693
LeftToeBase 20.209666 -0.000000 -0.000000
RightUpLeg -68.687915 -26.735379 8.749090
RightLeg 105.107740 -0.000000 -0.000000
RightFoot 23.786132 -29.802528 23.384048
RightToeBase 5.964504 -0.000000 -0.000000
1576
root 6.442087 32.699294 2.272524 -4.324070 -17.239590 -11.010154
Spine 9.848378 15.376459 9.216669
Head 1.170790 -5.828759 4.733110
LeftShoulder -17.158009 4.469254 30.401977
LeftArm -10.473270 -9.588541 -78.205427
LeftForeArm -13.847216 -0.000000 124.916309
LeftHand 8.341414 -0.000000 -3.205582
LeftHandThumb1 -26.253704 0.000000 33.147579
RightShoulder -19.167163 -16.596639 -23.387113
RightArm 6.266696 -10.005350 87.642530
RightForeArm -11.745699 -0.000000 16.665726
RightHand 18.338309 -0.000000 6.206965
RightHandThumb1 -24.326973 -0.000000 -32.862282
LeftUpLeg 11.886344 9.153775 1.833163
LeftLeg 0.284674 -0.000000 -0.000000
LeftFoot -19.928945 20.423193 -16.526389
LeftToeBase 20.318289 -0.000000 -0.000000
RightUpLeg -68.651352 -26.658300 8.698191
RightLeg 105.138681 -0.000000 -0.000000
RightFoot 23.704290 -29.830822 23.430407
RightToeBase 6.306450 -0.000000 -0.000000
1577
root 6.438253 32.699185 2.276374 -4.319840 -17.328975 -11.040936
Spine 9.882064 15.389019 9.252956
Head 1.136958 -5.727672 4.734449
LeftShoulder -17.155205 4.416990 30.382266
LeftArm -10.510377 -9.427605 -78.303834
LeftForeArm -13.692320 -0.000000 124.651065
LeftHand 8.509492 -0.000000 -2.925734
LeftHandThumb1 -26.253704 0.000000 33.147579
RightShoulder -19.146642 -16.584137 -23.406881
RightArm 6.334410 -10.078643 87.605831
RightForeArm -11.750301 -0.000000 16.635160
RightHand 18.356408 -0.000000 6.233352
RightHandThumb1 -24.326973 -0.000000 -32.862282
LeftUpLeg 11.895924 9.125101 1.848785
LeftLeg 0.321535 -0.000000 -0.000000
LeftFoot -19.978176 20.553470 -16.511481
LeftToeBase 20.160244 -0.000000 -0.000000
RightUpLeg -68.622025 -26.574137 8.663032
RightLeg 105.151733 -0.000000 -0.000000
RightFoot 23.725435 -29.820011 23.404116
RightToeBase 6.425720 -0.000000 -0.000000
1578
root 6.435896 32.699334 2.280801 -4.314019 -17.421669 -11.047556
Spine 9.896804 15.413181 9.254470
Head 1.128288 -5.630918 4.743667
LeftShoulder -17.139835 4.388511 30.358352
LeftArm -10.525955 -9.234285 -78.407057
LeftForeArm -13.597805 -0.000000 124.376093
LeftHand 8.626364 0.000000 -2.546908
LeftHandThumb1 -26.253704 0.000000 33.147579
RightShoulder -19.115781 -16.555461 -23.420688
RightArm 6.360754 -10.094837 87.581982
RightForeArm -11.752985 -0.000000 16.617530
RightHand 18.343719 -0.000000 6.258739
RightHandThumb1 -24.326973 -0.000000 -32.862282
LeftUpLeg 11.919026 9.179273 1.858944
LeftLeg 0.315957 -0.000000 -0.000000
LeftFoot -19.990763 20.595337 -16.491137
LeftToeBase 20.178721 -0.000000 -0.000000
RightUpLeg -68.612947 -26.493963 8.606904
RightLeg 105.175282 -0.000000 -0.000000
RightFoot 23.740997 -29.809612 23.389984
RightToeBase 6.315327 -0.000000 -0.000000
1579
root 6.433806 32.698936 2.286268 -4.308207 -17.515222 -11.060752
Spine 9.909131 15.428938 9.278202
Head 1.114558 -5.605483 4.753222
LeftShoulder -17.126151 4.333891 30.315041
LeftArm -10.577943 -8.986473 -78.483427
LeftForeArm -13.133545 -0.000000 124.142532
LeftHand 8.629996 -0.000000 -2.110209
LeftHandThumb1 -26.253704 0.000000 33.147579
RightShoulder -19.090619 -16.542421 -23.459721
RightArm 6.395442 -10.134259 87.569303
RightForeArm -11.717587 0.000000 16.600772
RightHand 18.339090 -0.000000 6.249084
RightHandThumb1 -24.326973 -0.000000 -32.862282
LeftUpLeg 11.959508 9.256529 1.881073
LeftLeg 0.297489 -0.000000 -0.000000
LeftFoot -20.014848 20.630251 -16.476284
LeftToeBase 20.279131 -0.000000 -0.000000
RightUpLeg -68.601301 -26.425498 8.547978
RightLeg 105.199122 -0.000000 -0.000000
RightFoot 23.722303 -29.824254 23.468590
RightToeBase 6.287626 -0.000000 -0.000000
